Normalized EMG Linear Envelopes
nRows=122
nColumns=4

endheader
time	 med_gas_r	  soleus_r	 tib_ant_r	
3	  0.006998	  0.005418	  0.001564	
3.0625	  0.007324	  0.005484	  0.001488	
3.125	  0.007500	  0.005467	  0.001393	
3.1875	  0.007406	  0.005426	  0.001298	
3.25	  0.007123	  0.005476	  0.001260	
3.3125	  0.006924	  0.005611	  0.001401	
3.375	  0.006986	  0.005719	  0.001923	
3.4375	  0.007233	  0.005753	  0.003021	
3.5	  0.007510	  0.005799	  0.004570	
3.5625	  0.007705	  0.005980	  0.005818	
3.625	  0.007704	  0.006280	  0.005875	
3.6875	  0.007417	  0.006496	  0.004711	
3.75	  0.006944	  0.006436	  0.003176	
3.8125	  0.006573	  0.006142	  0.002027	
3.875	  0.006533	  0.005822	  0.001448	
3.9375	  0.006760	  0.005631	  0.001303	
4	  0.006963	  0.005607	  0.001413	
4.0625	  0.006945	  0.005711	  0.001630	
4.125	  0.006801	  0.005889	  0.001830	
4.1875	  0.006706	  0.006130	  0.001917	
4.25	  0.006695	  0.006367	  0.001882	
4.3125	  0.006738	  0.006381	  0.001798	
4.375	  0.006860	  0.006054	  0.001718	
4.4375	  0.007120	  0.005591	  0.001652	
4.5	  0.007564	  0.005325	  0.001604	
4.5625	  0.008117	  0.005417	  0.001588	
4.625	  0.008491	  0.005777	  0.001598	
4.6875	  0.008408	  0.006070	  0.001581	
4.75	  0.007853	  0.005684	  0.001445	
4.8125	  0.006951	  0.003783	  0.001098	
4.875	  0.005705	 -0.000278	  0.000568	
4.9375	  0.004092	 -0.005973	  0.000164	
5	  0.002496	 -0.009940	  0.000639	
5.0625	  0.002353	 -0.004135	  0.003194	
5.125	  0.006726	  0.024240	  0.009019	
5.1875	  0.020229	  0.087879	  0.018196	
5.25	  0.048130	  0.186493	  0.028956	
5.3125	  0.094657	  0.292255	  0.038365	
5.375	  0.159321	  0.357538	  0.043742	
5.4375	  0.232116	  0.352688	  0.043806	
5.5	  0.294658	  0.291551	  0.039390	
5.5625	  0.330677	  0.212355	  0.033101	
5.625	  0.336886	  0.146079	  0.027726	
5.6875	  0.324357	  0.106505	  0.024710	
5.75	  0.309781	  0.093729	  0.023914	
5.8125	  0.302338	  0.099963	  0.024557	
5.875	  0.297621	  0.117578	  0.026130	
5.9375	  0.286796	  0.143039	  0.028419	
6	  0.269723	  0.171613	  0.031128	
6.0625	  0.253760	  0.192230	  0.033476	
6.125	  0.241850	  0.193297	  0.034148	
6.1875	  0.229118	  0.173389	  0.032179	
6.25	  0.212003	  0.142454	  0.028079	
6.3125	  0.195174	  0.113080	  0.023655	
6.375	  0.186174	  0.093851	  0.020610	
6.4375	  0.186428	  0.087931	  0.019453	
6.5	  0.192517	  0.092136	  0.019687	
6.5625	  0.203732	  0.099395	  0.020600	
6.625	  0.220709	  0.105384	  0.021580	
6.6875	  0.238794	  0.110864	  0.022160	
6.75	  0.249968	  0.117979	  0.022278	
6.8125	  0.249510	  0.127353	  0.022182	
6.875	  0.238297	  0.137587	  0.021868	
6.9375	  0.220186	  0.145237	  0.021068	
7	  0.196701	  0.146629	  0.019728	
7.0625	  0.166460	  0.141117	  0.018090	
7.125	  0.132355	  0.132533	  0.016457	
7.1875	  0.104244	  0.126267	  0.015022	
7.25	  0.090207	  0.123197	  0.013826	
7.3125	  0.089025	  0.118904	  0.012921	
7.375	  0.094097	  0.111605	  0.012474	
7.4375	  0.100600	  0.106713	  0.012501	
7.5	  0.106370	  0.110004	  0.012638	
7.5625	  0.110321	  0.119830	  0.012478	
7.625	  0.113379	  0.129098	  0.012092	
7.6875	  0.118309	  0.132745	  0.011900	
7.75	  0.126644	  0.131810	  0.012070	
7.8125	  0.136952	  0.131846	  0.012390	
7.875	  0.146232	  0.136827	  0.012662	
7.9375	  0.152799	  0.143949	  0.012874	
8	  0.157673	  0.148182	  0.013042	
8.0625	  0.162071	  0.150609	  0.013083	
8.125	  0.164734	  0.155291	  0.012886	
8.1875	  0.163376	  0.161277	  0.012464	
8.25	  0.157591	  0.164133	  0.011999	
8.3125	  0.149618	  0.159815	  0.011667	
8.375	  0.141738	  0.145300	  0.011507	
8.4375	  0.133899	  0.122869	  0.011518	
8.5	  0.127080	  0.101726	  0.011742	
8.5625	  0.126635	  0.090179	  0.012205	
8.625	  0.138208	  0.089599	  0.012801	
8.6875	  0.163449	  0.096663	  0.013288	
8.75	  0.200469	  0.107720	  0.013554	
8.8125	  0.241624	  0.120481	  0.013767	
8.875	  0.272309	  0.132247	  0.014044	
8.9375	  0.282530	  0.139384	  0.014182	
9	  0.279699	  0.141668	  0.014062	
9.0625	  0.281273	  0.142935	  0.014156	
9.125	  0.294713	  0.144932	  0.015209	
9.1875	  0.311118	  0.146944	  0.017511	
9.25	  0.318878	  0.150521	  0.020768	
9.3125	  0.317287	  0.156863	  0.024495	
9.375	  0.314079	  0.162421	  0.028107	
9.4375	  0.314988	  0.162548	  0.030685	
9.5	  0.320615	  0.157925	  0.031363	
9.5625	  0.330730	  0.156897	  0.030444	
9.625	  0.347216	  0.172433	  0.029763	
9.6875	  0.373792	  0.213683	  0.031453	
9.75	  0.412811	  0.274049	  0.036217	
9.8125	  0.457915	  0.326296	  0.042455	
9.875	  0.490812	  0.339807	  0.046962	
9.9375	  0.491756	  0.307819	  0.046945	
10	  0.456274	  0.250557	  0.042088	
10.0625	  0.400046	  0.194337	  0.034909	
10.125	  0.344248	  0.154336	  0.028442	
10.1875	  0.297341	  0.130050	  0.023638	
10.25	  0.255533	  0.111340	  0.019681	
10.3125	  0.215288	  0.091039	  0.015969	
10.375	  0.178196	  0.071543	  0.012670	
10.4375	  0.149881	  0.060210	  0.010067	
10.5	  0.136541	  0.061356	  0.008163	
10.5625	  0.135964	  0.071688	  0.006669	
